<svg width="55" height="55" viewBox="0 0 55 55" fill="none" xmlns="http://www.w3.org/2000/svg">
<path d="M26.0353 6.71777H3.02022C1.74909 6.71777 0.71875 7.74821 0.71875 9.01925V51.9807C0.71875 53.2519 1.74919 54.2822 3.02022 54.2822H26.0353C27.3065 54.2822 28.3368 53.2518 28.3368 51.9807V9.01925C28.3368 7.74821 27.3064 6.71777 26.0353 6.71777Z" fill="#ECEAEC"/>
<path d="M0.71875 9.01925V51.9807C0.71875 53.2519 1.74919 54.2822 3.02022 54.2822V6.71777C1.74909 6.71777 0.71875 7.74821 0.71875 9.01925Z" fill="#DAD8DB"/>
<path d="M0.71875 9.7865H28.3369V51.2137H0.71875V9.7865Z" fill="white"/>
<path d="M0.71875 9.7865H3.02022V51.2137H0.71875V9.7865Z" fill="#ECEAEC"/>
<path d="M22.2003 43.5419C23.0477 43.5419 23.7346 42.855 23.7346 42.0076C23.7346 41.1602 23.0477 40.4733 22.2003 40.4733C21.353 40.4733 20.666 41.1602 20.666 42.0076C20.666 42.855 21.353 43.5419 22.2003 43.5419Z" fill="#5D5360"/>
<path d="M9.92494 43.5419C10.7723 43.5419 11.4593 42.855 11.4593 42.0076C11.4593 41.1602 10.7723 40.4733 9.92494 40.4733C9.07756 40.4733 8.39062 41.1602 8.39062 42.0076C8.39062 42.855 9.07756 43.5419 9.92494 43.5419Z" fill="#5D5360"/>
<path d="M9.92383 9.7865V17.4582C9.92383 18.7293 10.9543 19.7596 12.2253 19.7596C13.4963 19.7596 14.5269 18.7292 14.5269 17.4582V9.7865H9.92383Z" fill="#F4494E"/>
<path d="M5.32031 9.7865V17.4582C5.32031 18.7293 6.35075 19.7596 7.62179 19.7596C8.89292 19.7596 9.92326 18.7292 9.92326 17.4582V9.7865H5.32031Z" fill="#FF8D4D"/>
<path d="M14.5273 9.7865V17.4582C14.5273 18.7293 15.5578 19.7596 16.8288 19.7596C18.0999 19.7596 19.1303 18.7292 19.1303 17.4582V9.7865H14.5273Z" fill="#FF8D4D"/>
<path d="M19.1289 9.7865V17.4582C19.1289 18.7293 20.1593 19.7596 21.4304 19.7596C22.7015 19.7596 23.7318 18.7292 23.7318 17.4582V9.7865H19.1289Z" fill="#F4494E"/>
<path d="M0.71875 9.7865V17.4582C0.71875 18.7293 1.74919 19.7596 3.02022 19.7596C4.29135 19.7596 5.32169 18.7292 5.32169 17.4582V9.7865H0.71875Z" fill="#F4494E"/>
<path d="M23.7324 9.7865V17.4582C23.7324 18.7293 24.7629 19.7596 26.0339 19.7596C27.305 19.7596 28.3354 18.7292 28.3354 17.4582V9.7865H23.7324Z" fill="#FF8D4D"/>
<path d="M0.71875 9.7865V17.4582C0.71875 18.7293 1.74919 19.7596 3.02022 19.7596V9.7865H0.71875Z" fill="#F4494E"/>
<path d="M11.1412 37.2376H22.5689C23.2011 37.2376 23.7137 36.5246 23.7137 35.6451V30.8676C23.7137 29.9881 23.2011 29.2751 22.5689 29.2751H10.1592C9.39855 29.2751 8.84929 30.2881 9.05851 31.3054L10.0405 36.0829C10.1809 36.7663 10.63 37.2376 11.1412 37.2376Z" fill="#F4494E"/>
<path d="M26.0345 6H3.01934C1.35449 6 0 7.35439 0 9.01925V51.9808C0 53.6456 1.35449 55 3.01934 55H26.0344C27.6992 55 29.0537 53.6456 29.0537 51.9808V9.01925C29.0538 7.35439 27.6993 6 26.0345 6V6ZM23.7329 13.6716C23.3365 13.6716 23.0151 13.9929 23.0151 14.3894V17.4582C23.0151 18.3315 22.3047 19.0419 21.4314 19.0419C20.5581 19.0419 19.8477 18.3315 19.8477 17.4582V10.5042H23.0152V11.3204C23.0152 11.7168 23.3366 12.0382 23.733 12.0382C24.1294 12.0382 24.4508 11.7168 24.4508 11.3204V10.5042H27.6183V17.4582C27.6183 18.3315 26.9078 19.0419 26.0345 19.0419C25.1612 19.0419 24.4508 18.3315 24.4508 17.4582V14.3894C24.4507 13.9929 24.1293 13.6716 23.7329 13.6716ZM1.43555 10.5042H4.60304V17.4582C4.60304 18.3315 3.89254 19.0419 3.01925 19.0419C2.14596 19.0419 1.43555 18.3315 1.43555 17.4582V10.5042ZM6.03869 10.5042H9.20618V17.4582C9.20618 18.3315 8.49578 19.0419 7.62248 19.0419C6.74919 19.0419 6.03878 18.3315 6.03878 17.4582V10.5042H6.03869ZM10.6416 10.5042H13.8091V17.4582C13.8091 18.3315 13.0987 19.0419 12.2254 19.0419C11.3521 19.0419 10.6417 18.3315 10.6417 17.4582V10.5042H10.6416ZM15.2447 10.5042H18.4122V17.4582C18.4122 18.3315 17.7018 19.0419 16.8285 19.0419C15.9552 19.0419 15.2448 18.3315 15.2448 17.4582V10.5042H15.2447ZM3.01934 7.43555H26.0344C26.9077 7.43555 27.6182 8.14596 27.6182 9.01925V9.06863H1.43555V9.01925C1.43555 8.14596 2.14605 7.43555 3.01934 7.43555ZM26.0345 53.5645H3.01934C2.14605 53.5645 1.43555 52.8541 1.43555 51.9808V51.9315H3.78641C4.18281 51.9315 4.50418 51.6101 4.50418 51.2137C4.50418 50.8173 4.18281 50.4959 3.78641 50.4959H1.43555V20.0273C1.89636 20.3124 2.43881 20.4774 3.01934 20.4774C3.94078 20.4774 4.7666 20.0621 5.32082 19.4093C5.87504 20.0621 6.70086 20.4774 7.62229 20.4774C8.54372 20.4774 9.36955 20.0621 9.92377 19.4093C10.478 20.0621 11.3038 20.4774 12.2252 20.4774C13.1467 20.4774 13.9725 20.0621 14.5267 19.4093C15.0809 20.0621 15.9068 20.4774 16.8282 20.4774C17.7496 20.4774 18.5754 20.0621 19.1297 19.4093C19.6839 20.0621 20.5097 20.4774 21.4311 20.4774C22.3526 20.4774 23.1784 20.0621 23.7326 19.4093C24.2868 20.0621 25.1126 20.4774 26.0341 20.4774C26.6146 20.4774 27.1571 20.3123 27.6179 20.0273V50.4959H6.85533C6.45892 50.4959 6.13755 50.8173 6.13755 51.2137C6.13755 51.6101 6.45892 51.9315 6.85533 51.9315H27.6183V51.9808C27.6183 52.8541 26.9078 53.5645 26.0345 53.5645Z" fill="#222222"/>
<path d="M7.25067 27.9743L9.68345 36.4889C9.95821 37.4506 10.8486 38.1224 11.8489 38.1224H22.199C23.4409 38.1224 24.4511 37.112 24.4511 35.8703V28.9658C24.4511 28.5693 24.1298 28.248 23.7334 28.248H8.82183L8.6309 27.5799C8.35604 26.6181 7.46562 25.9465 6.46542 25.9465H5.32129C4.92489 25.9465 4.60352 26.2679 4.60352 26.6643C4.60352 27.0607 4.92489 27.3821 5.32129 27.3821H6.46542C6.82814 27.382 7.15104 27.6255 7.25067 27.9743ZM23.0156 29.6835V35.8703C23.0156 36.3206 22.6492 36.6868 22.199 36.6868H11.8489C11.4862 36.6868 11.1634 36.4433 11.0638 36.0946L9.23202 29.6835H23.0156Z" fill="#222222"/>
<path d="M22.1988 39.7554C21.2079 39.7554 20.3651 40.3989 20.0646 41.2897H12.0581C11.7577 40.3989 10.9149 39.7554 9.92397 39.7554C8.68212 39.7554 7.67188 40.7658 7.67188 42.0075C7.67188 43.2494 8.68221 44.2597 9.92397 44.2597C10.9149 44.2597 11.7576 43.6162 12.0581 42.7253H20.0646C20.365 43.6162 21.2079 44.2597 22.1988 44.2597C23.4406 44.2597 24.4509 43.2494 24.4509 42.0075C24.4509 40.7658 23.4406 39.7554 22.1988 39.7554ZM9.92406 42.8242C9.47378 42.8242 9.10752 42.4578 9.10752 42.0075C9.10752 41.5572 9.47387 41.191 9.92406 41.191C10.3743 41.191 10.7406 41.5573 10.7406 42.0075C10.7407 42.4579 10.3743 42.8242 9.92406 42.8242ZM22.1988 42.8242C21.7485 42.8242 21.3822 42.4578 21.3822 42.0075C21.3822 41.5572 21.7486 41.191 22.1988 41.191C22.649 41.191 23.0153 41.5573 23.0153 42.0075C23.0153 42.4579 22.6491 42.8242 22.1988 42.8242Z" fill="#222222"/>
</svg>
