<svg width="55" height="55" viewBox="0 0 55 55" fill="none" xmlns="http://www.w3.org/2000/svg">
<g clip-path="url(#clip0)">
<path d="M47.7142 17.709H7.7618C6.32283 17.709 5.15625 18.8756 5.15625 20.3145V52.4502H50.3199V20.3146C50.3198 18.8756 49.1533 17.709 47.7142 17.709Z" fill="#F2FAFF"/>
<path d="M45.9752 48.1076H9.4968C8.53749 48.1076 7.75977 47.3299 7.75977 46.3706V22.0517C7.75977 21.0924 8.53749 20.3147 9.4968 20.3147H45.975C46.9344 20.3147 47.7121 21.0924 47.7121 22.0517V46.3706C47.7122 47.3299 46.9345 48.1076 45.9752 48.1076Z" fill="#F2FAFF"/>
<path d="M22.5255 22.0517L17.9417 27.3996C17.5369 27.8719 17.3145 28.4733 17.3145 29.0952V31.6054L25.1312 27.2627L22.5255 22.0517Z" fill="#F4494E"/>
<path d="M21.5865 29.2319L25.1306 27.2629L22.5251 22.0517L19.9492 25.057C20.3569 26.4996 20.9097 27.8943 21.5865 29.2319Z" fill="#F4494E"/>
<path d="M32.9475 22.0517L37.5313 27.3996C37.9361 27.8719 38.1586 28.4733 38.1586 29.0952V31.6054L30.3418 27.2627L32.9475 22.0517Z" fill="#F4494E"/>
<path d="M0.8125 50.7131V52.4502C0.8125 53.4095 1.59022 54.1872 2.54953 54.1872H52.9243C53.8836 54.1872 54.6613 53.4095 54.6613 52.4502V50.7131H0.8125Z" fill="#DAD8DB"/>
<path d="M28.3637 4.45751C28.0297 4.09725 27.446 4.09725 27.112 4.45751C23.7477 8.08575 21.6582 13.0651 21.6582 18.5776C21.6582 22.7711 22.8722 26.6522 24.9319 29.8685H30.5439C32.6036 26.6522 33.8177 22.7711 33.8177 18.5776C33.8177 13.065 31.7281 8.08575 28.3637 4.45751Z" fill="#FF8D4D"/>
<path d="M27.2184 27.2629C26.8732 27.2629 26.555 27.0477 26.4078 26.7144C25.2733 24.1456 24.698 21.4079 24.698 18.5777C24.698 15.8556 25.2599 13.2042 26.2913 10.7609H23.1461C22.1903 13.1621 21.6582 15.8016 21.6582 18.5777C21.6582 22.7712 22.8722 26.6523 24.9319 29.8686H30.5439C31.073 29.0424 31.544 28.171 31.9553 27.263H31.5266H27.2184V27.2629Z" fill="#FF8D4D"/>
<path d="M31.2101 33.3426H24.2617L24.9299 29.8685H30.5419L31.2101 33.3426Z" fill="#C8C5C9"/>
<path d="M27.7384 20.3146C29.1774 20.3146 30.3439 19.148 30.3439 17.709C30.3439 16.27 29.1774 15.1035 27.7384 15.1035C26.2994 15.1035 25.1328 16.27 25.1328 17.709C25.1328 19.148 26.2994 20.3146 27.7384 20.3146Z" fill="#F2FAFF"/>
<path d="M23.1445 10.7608H32.3282C31.386 8.3939 30.0322 6.25858 28.3622 4.45741C28.0282 4.09704 27.4446 4.09704 27.1105 4.45741C25.4405 6.25858 24.0867 8.3939 23.1445 10.7608Z" fill="#F4494E"/>
<path d="M26.293 10.7608C27.0818 8.88797 28.1206 7.17867 29.3952 5.67892C29.0646 5.25918 28.7254 4.84703 28.3642 4.45741C28.0302 4.09704 27.4466 4.09704 27.1125 4.45741C25.4424 6.25847 24.0886 8.39379 23.1465 10.7608H26.293Z" fill="#F4494E"/>
<path d="M39.8967 42.8964C39.1997 42.8964 38.5327 43.0195 37.909 43.2354C37.3247 41.527 35.7232 40.2908 33.817 40.2908C32.7538 40.2908 31.7929 40.6877 31.038 41.322C31.1405 40.9942 31.2114 40.6524 31.2114 40.2908C31.2114 38.372 29.6561 36.8166 27.7372 36.8166C25.8184 36.8166 24.263 38.372 24.263 40.2908C24.263 40.6523 24.3339 40.9942 24.4364 41.322C23.6815 40.6877 22.7205 40.2908 21.6575 40.2908C19.7512 40.2908 18.1496 41.527 17.5654 43.2354C16.9418 43.0195 16.2748 42.8964 15.5778 42.8964C12.2201 42.8964 9.49805 45.6183 9.49805 48.9761C9.49805 49.5802 9.58917 50.1624 9.7531 50.7132H45.7212C45.8853 50.1624 45.9763 49.5802 45.9763 48.9761C45.9764 45.6183 43.2544 42.8964 39.8967 42.8964Z" fill="white"/>
<path d="M27.7382 15.1035C26.5604 15.1035 25.5771 15.8899 25.2543 16.9623C25.4925 16.8907 24.7025 16.9623 24.9639 16.9623C26.403 16.9623 25.311 18.2518 26.3513 19.6386C26.3513 19.9001 28.5565 19.9548 28.485 20.1928C29.5575 19.8701 30.3438 18.8867 30.3438 17.7089C30.3437 16.2701 29.1773 15.1035 27.7382 15.1035Z" fill="white"/>
<path d="M54.6615 49.9006H51.1314V20.3147C51.1314 18.4299 49.5981 16.8965 47.7133 16.8965H37.2913C36.8425 16.8965 36.4787 17.2603 36.4787 17.7091C36.4787 18.1579 36.8425 18.5217 37.2913 18.5217H47.7133C48.7019 18.5217 49.5062 19.3261 49.5062 20.3147V49.9007H46.7248C46.7667 49.5939 46.7887 49.2851 46.7887 48.9763C46.7887 45.1759 43.6968 42.0839 39.8964 42.0839C39.3854 42.0839 38.8752 42.1423 38.3723 42.2579C37.4955 40.5686 35.7491 39.4783 33.8168 39.4783C33.1864 39.4783 32.5741 39.5932 31.9977 39.8165C31.761 37.6752 29.9405 36.0041 27.7371 36.0041C25.5336 36.0041 23.7131 37.6752 23.4764 39.8165C22.9 39.5932 22.2877 39.4783 21.6573 39.4783C19.7251 39.4783 17.9785 40.5686 17.1018 42.2579C16.5988 42.1422 16.0887 42.0839 15.5777 42.0839C11.7772 42.0839 8.68538 45.1759 8.68538 48.9763C8.68538 49.2852 8.70738 49.5939 8.74931 49.9007H5.96791V20.3147C5.96791 19.326 6.77218 18.5217 7.76085 18.5217H18.1832C18.6319 18.5217 18.9958 18.1579 18.9958 17.7091C18.9958 17.2603 18.6319 16.8965 18.1832 16.8965H7.76085C5.87603 16.8965 4.34269 18.43 4.34269 20.3147V49.9007H0.812609C0.363832 49.9007 0 50.2645 0 50.7133V52.4503C0 53.8563 1.14383 55 2.54964 55H52.9245C54.3304 55 55.4741 53.8562 55.4741 52.4503V50.7133C55.4741 50.2644 55.1103 49.9006 54.6615 49.9006ZM53.8489 52.4503C53.8489 52.9601 53.4342 53.3748 52.9245 53.3748H2.54964C2.03987 53.3748 1.62522 52.96 1.62522 52.4503V51.5259H12.1032C12.552 51.5259 12.9158 51.1621 12.9158 50.7133C12.9158 50.2645 12.552 49.9007 12.1032 49.9007H10.3937C10.3386 49.5944 10.3105 49.2852 10.3105 48.9763C10.3105 46.072 12.6733 43.7092 15.5776 43.7092C16.1561 43.7092 16.7353 43.8082 17.2993 44.0034C17.5035 44.0742 17.7273 44.0606 17.9216 43.9659C18.1158 43.8711 18.2642 43.703 18.3342 43.4985C18.824 42.0661 20.1595 41.1036 21.6574 41.1036C22.4788 41.1036 23.2589 41.3943 23.9136 41.9444C24.19 42.1766 24.5863 42.1987 24.8868 41.9986C25.1872 41.7984 25.3196 41.4242 25.2119 41.0798C25.1189 40.7822 25.0756 40.5316 25.0756 40.291C25.0756 38.8234 26.2696 37.6295 27.7371 37.6295C29.2045 37.6295 30.3985 38.8235 30.3985 40.291C30.3985 40.5316 30.3552 40.7822 30.2622 41.0798C30.1545 41.4243 30.287 41.7985 30.5874 41.9986C30.8878 42.1986 31.2842 42.1766 31.5606 41.9444C32.2152 41.3944 32.9954 41.1036 33.8167 41.1036C35.3146 41.1036 36.6501 42.0661 37.1399 43.4985C37.2099 43.703 37.3584 43.8711 37.5525 43.9659C37.7468 44.0607 37.9707 44.0743 38.1749 44.0034C38.7388 43.8082 39.3179 43.7092 39.8965 43.7092C42.8009 43.7092 45.1636 46.072 45.1636 48.9763C45.1636 49.2852 45.1355 49.5944 45.0804 49.9007H15.5779C15.1292 49.9007 14.7653 50.2645 14.7653 50.7133C14.7653 51.1621 15.1292 51.5259 15.5779 51.5259H53.8489V52.4503Z" fill="#222222"/>
<path d="M17.2942 26.8865C16.7833 27.4996 16.502 28.2768 16.502 29.0748V31.6056C16.502 31.8945 16.6554 32.1617 16.9048 32.3074C17.0313 32.3813 17.173 32.4182 17.3146 32.4182C17.4523 32.4182 17.59 32.3834 17.7139 32.3134L23.5008 29.0481C23.7213 29.4507 23.9551 29.8468 24.202 30.2357L23.4746 33.1456C23.4138 33.3884 23.4684 33.6455 23.6224 33.8428C23.7763 34.0401 24.0126 34.1554 24.2629 34.1554H31.2112C31.4614 34.1554 31.6976 34.0401 31.8517 33.8428C32.0057 33.6456 32.0603 33.3884 31.9995 33.1456L31.272 30.2357C31.519 29.8468 31.7528 29.4508 31.9733 29.0481L37.7601 32.3134C37.8842 32.3834 38.0218 32.4182 38.1595 32.4182C38.3011 32.4182 38.4427 32.3812 38.5693 32.3074C38.8187 32.1618 38.9721 31.8946 38.9721 31.6056V29.0748C38.9721 28.2768 38.6907 27.4996 38.1799 26.8865L34.3222 22.2589C34.5254 21.0518 34.6294 19.8211 34.6294 18.5777C34.6294 15.6142 34.0557 12.7497 32.9242 10.0639C31.833 7.47352 30.2796 5.17546 28.3072 3.23354C27.9909 2.92215 27.4833 2.92215 27.1671 3.23354C25.1947 5.17536 23.6413 7.47341 22.55 10.0639C21.4186 12.7498 20.8449 15.6142 20.8449 18.5777C20.8449 19.8191 20.9485 21.048 21.1511 22.2533L17.2942 26.8865ZM18.1272 30.214V29.0748C18.1272 28.6562 18.2747 28.2486 18.5427 27.927L21.5886 24.272C21.8929 25.4105 22.2885 26.5209 22.7735 27.5924L18.1272 30.214ZM25.3036 32.5301L25.7658 30.6812H29.708L30.1703 32.5301H25.3036ZM36.931 27.927C37.199 28.2486 37.3466 28.6562 37.3466 29.0748V30.214L32.7003 27.5923C33.1851 26.5208 33.5808 25.4105 33.8852 24.2719L36.931 27.927ZM27.7369 4.97816C29.1015 6.44508 30.227 8.12708 31.0824 9.9483H24.3913C25.2467 8.12708 26.3722 6.44508 27.7369 4.97816ZM23.7141 11.5734H31.7595C32.572 13.7886 33.0039 16.1635 33.0039 18.5776C33.0039 22.3143 31.9986 25.9271 30.0923 29.0559H25.3813C23.475 25.9271 22.4698 22.3143 22.4698 18.5776C22.4698 16.1635 22.9017 13.7887 23.7141 11.5734Z" fill="#222222"/>
<path d="M31.1566 17.7091C31.1566 15.8242 29.6233 14.2909 27.7385 14.2909C25.8537 14.2909 24.3203 15.8243 24.3203 17.7091C24.3203 19.5938 25.8537 21.1272 27.7385 21.1272C29.6233 21.1272 31.1566 19.5939 31.1566 17.7091ZM25.9455 17.7091C25.9455 16.7204 26.7498 15.9161 27.7385 15.9161C28.7271 15.9161 29.5314 16.7205 29.5314 17.7091C29.5314 18.6976 28.7271 19.502 27.7385 19.502C26.7498 19.502 25.9455 18.6977 25.9455 17.7091Z" fill="#222222"/>
</g>
<defs>
<clipPath id="clip0">
<rect width="55" height="55" fill="white"/>
</clipPath>
</defs>
</svg>
