<?xml version="1.0" encoding="UTF-8"?>
<svg id="Layer_2" data-name="Layer 2" xmlns="http://www.w3.org/2000/svg" xmlns:xlink="http://www.w3.org/1999/xlink" viewBox="0 0 187.54 109.76">
  <defs>
    <style>
      .cls-1 {
        fill: url(#linear-gradient);
        fill-rule: evenodd;
      }
    </style>
    <linearGradient id="linear-gradient" x1="-5.87" y1="80.51" x2="175.65" y2="39.06" gradientUnits="userSpaceOnUse">
      <stop offset="0" stop-color="#fa709a"/>
      <stop offset="1" stop-color="#fee140"/>
    </linearGradient>
  </defs>
  <g id="Layer_1-2" data-name="Layer 1">
    <path class="cls-1" d="M187.54,75.07c-7.9-.28-19.53-3.46-27.83-5.17-16.9-3.53-39.12-7.37-61.44-8.56,4.36,20.55,12.54,39.81,29.37,45.04,2.38,.68,4.3,1.05,6.9,1.86-3.34,.93-3.9,1.05-7.43,.65-20.46-2.44-31.11-25.81-36.89-47.81-7.62-.14-15.17,.06-22.44,.79-9.04,17.58-20.1,33.71-32.88,42.1-10,6.47-25.63,9.87-32.59-2.75-6.98-12.6,3.19-26.98,13.25-34.39,11.61-8.51,26.59-13.05,42.91-14.83,7.8-14.56,14.21-30.12,18.79-42.5,1.58-4.21,4.18-11.79,10.46-8.84,4.7,2.26,4.64,11.42,5.04,15.97,.81,9.3,1.67,22.19,3.75,35.38,23.56,2.14,46.83,7.61,64.57,12.94,8.29,2.54,19.1,5.62,26.47,10.12h0Zm-136.36-10.54c-8.96,2.04-17.13,5.17-24.05,9.6-5.28,3.34-15.1,11.98-13.36,19.28,1.59,6.31,13.3-1.7,15.46-3.31,7.99-6.07,15.35-15.17,21.95-25.57h0Zm36.72-13.14c-1.24-6.13-2.2-11.81-2.91-16.56-.46-3.02-.87-6.54-1.3-10.2-2.94,8.3-6.56,17.43-10.71,26.45,4.92-.05,9.94,.03,14.92,.31h0Z"/>
  </g>
</svg>