<svg width="55" height="55" viewBox="0 0 55 55" fill="none" xmlns="http://www.w3.org/2000/svg">
<path d="M36.2133 28.0892V14.6277H27.4048V28.0892C22.1356 29.9135 18.3516 34.9189 18.3516 40.8086C18.3516 48.241 24.3767 54.2661 31.8091 54.2661C39.2414 54.2661 45.2666 48.241 45.2666 40.8086C45.2666 34.9188 41.4826 29.9134 36.2133 28.0892Z" fill="#E6F5FF" fill-opacity="0.6"/>
<path d="M40.9219 35.5479L40.6546 35.5851C38.4627 36.2073 38.6433 37.5054 36.3648 37.5054C34.0863 37.5054 34.0863 35.5479 31.8079 35.5479C29.5297 35.5479 29.5297 37.5054 27.2515 37.5054C24.9732 37.5054 25.1539 36.2073 22.9623 35.5851L22.695 35.5479C21.7997 37.0955 21.2871 38.8921 21.2871 40.8085C21.2871 46.6193 25.9977 51.3298 31.8084 51.3298C37.6192 51.3298 42.3297 46.6193 42.3297 40.8085C42.3298 38.8921 41.8171 37.0955 40.9219 35.5479Z" fill="#FF8D4D"/>
<path d="M36.7045 12.6702H26.9173C26.1065 12.6702 25.4492 13.3275 25.4492 14.1382C25.4492 14.9489 26.1066 15.6063 26.9173 15.6063H36.7045C37.5153 15.6063 38.1726 14.9489 38.1726 14.1382C38.1726 13.3275 37.5154 12.6702 36.7045 12.6702Z" fill="#C6E3F7"/>
<path d="M24.1151 48.7163L16.9813 28.0892V11.6914H8.17273V28.0892L1.03884 48.7163C-0.0168 51.7687 1.76204 54.2661 4.99178 54.2661H20.162C23.3919 54.266 25.1708 51.7686 24.1151 48.7163Z" fill="white"/>
<path d="M3.79925 50.9324C3.97662 51.1813 4.42209 51.33 4.9912 51.33H20.1614C20.7304 51.33 21.1761 51.1813 21.3534 50.9324C21.5307 50.6835 21.5254 50.2138 21.3394 49.676L19.278 43.7156C18.7744 44.1062 18.2483 44.4177 17.1327 44.4177C14.8542 44.4177 14.8542 42.4603 12.5758 42.4603C10.2976 42.4603 10.2976 44.4177 8.0194 44.4177C6.90401 44.4177 6.37812 44.1064 5.87451 43.7156L3.81309 49.676C3.62719 50.2137 3.62207 50.6835 3.79925 50.9324Z" fill="#F4494E"/>
<path d="M17.4702 9.73398H7.6829C6.87209 9.73398 6.21484 10.3913 6.21484 11.202C6.21484 12.0127 6.87218 12.6701 7.6829 12.6701H17.4701C18.2809 12.6701 18.9382 12.0127 18.9382 11.202C18.9382 10.3913 18.2809 9.73398 17.4702 9.73398Z" fill="#DFEDF7"/>
<path d="M36.9501 27.5768V16.3265C38.0496 16.2044 38.9075 15.2699 38.9075 14.1383C38.9075 12.924 37.9197 11.9362 36.7054 11.9362H26.9181C25.7038 11.9362 24.716 12.924 24.716 14.1383C24.716 15.2698 25.5739 16.2044 26.6734 16.3265V27.577C24.4541 28.4395 22.4795 29.8539 20.9375 31.6908C20.6768 32.0013 20.7173 32.4644 21.0277 32.7249C21.1652 32.8404 21.3328 32.8968 21.4993 32.8968C21.7087 32.8968 21.9167 32.8077 22.0618 32.6347C23.5467 30.8658 25.4782 29.5339 27.6476 28.7829C27.9433 28.6805 28.1415 28.4021 28.1415 28.0892V16.3404H32.3011C32.7065 16.3404 33.0351 16.0117 33.0351 15.6063C33.0351 15.2009 32.7065 14.8722 32.3011 14.8722H26.9181C26.5133 14.8722 26.184 14.543 26.184 14.1382C26.184 13.7333 26.5132 13.4041 26.9181 13.4041H36.7053C37.1101 13.4041 37.4394 13.7333 37.4394 14.1382C37.4394 14.543 37.1102 14.8722 36.7053 14.8722H35.2373C34.8319 14.8722 34.5032 15.2009 34.5032 15.6063C34.5032 16.0117 34.8319 16.3404 35.2373 16.3404H35.4819V28.0891C35.4819 28.4019 35.6802 28.6804 35.9758 28.7828C41.0955 30.5552 44.5352 35.388 44.5352 40.8084C44.5352 47.8242 38.8275 53.5319 31.8118 53.5319C30.1578 53.5319 28.5478 53.2185 27.0265 52.6005C26.6511 52.4478 26.2228 52.6287 26.0703 53.0042C25.9177 53.3798 26.0986 53.8079 26.4741 53.9604C28.1717 54.65 29.9674 54.9997 31.8118 54.9997C39.637 54.9997 46.0033 48.6334 46.0033 40.8083C46.0033 34.9388 42.3867 29.687 36.9501 27.5768Z" fill="#222222"/>
<path d="M37.2809 44.1239C37.6864 44.1239 38.015 43.7953 38.015 43.3899C38.015 42.9844 37.6864 42.6558 37.2809 42.6558C36.8755 42.6558 36.5469 42.9844 36.5469 43.3899C36.5469 43.7953 36.8755 44.1239 37.2809 44.1239Z" fill="#222222"/>
<path d="M34.3454 47.0602C34.7508 47.0602 35.0795 46.7315 35.0795 46.3261C35.0795 45.9207 34.7508 45.592 34.3454 45.592C33.94 45.592 33.6113 45.9207 33.6113 46.3261C33.6113 46.7315 33.94 47.0602 34.3454 47.0602Z" fill="#222222"/>
<path d="M27.6661 49.6763C27.2991 49.5045 26.862 49.6626 26.6901 50.0297C26.5181 50.3968 26.6763 50.8338 27.0434 51.0057C28.5425 51.7079 30.1468 52.0639 31.812 52.0639C38.0182 52.0639 43.0674 47.0148 43.0674 40.8085C43.0674 38.8302 42.5465 36.884 41.5607 35.1802C41.4112 34.9217 41.1202 34.7793 40.8242 34.8208L40.557 34.858C40.5235 34.8626 40.4903 34.8697 40.4577 34.8789C39.3481 35.1938 38.7496 35.6745 38.2687 36.0607C37.736 36.4885 37.384 36.7712 36.3684 36.7712C35.5012 36.7712 35.1099 36.435 34.5683 35.9697C33.9688 35.4547 33.2227 34.8137 31.8115 34.8137C30.4004 34.8137 29.6544 35.4547 29.0549 35.9698C28.5134 36.4351 28.1222 36.7712 27.2551 36.7712C26.2397 36.7712 25.8879 36.4885 25.3552 36.0607C24.8743 35.6745 24.2759 35.1938 23.1664 34.8789C23.1338 34.8696 23.1007 34.8626 23.067 34.858L22.7998 34.8208C22.5045 34.7794 22.2142 34.921 22.0643 35.1785C22.0579 35.1894 22.0518 35.2004 22.045 35.2129C21.843 35.5644 21.9641 36.0131 22.3156 36.2151C22.4683 36.3028 22.6392 36.3297 22.8004 36.303L22.8126 36.3048C23.6043 36.5375 24.0085 36.862 24.4357 37.2053C25.0685 37.7137 25.723 38.2393 27.255 38.2393C28.6661 38.2393 29.4121 37.5983 30.0116 37.0832C30.5531 36.618 30.9444 36.2819 31.8114 36.2819C32.6786 36.2819 33.0699 36.6181 33.6115 37.0833C34.211 37.5983 34.9571 38.2393 36.3683 38.2393C37.9004 38.2393 38.5549 37.7136 39.1879 37.2054C39.565 36.9025 39.9238 36.6143 40.5473 36.3907C41.2368 37.7532 41.5992 39.2695 41.5992 40.8086C41.5992 46.2053 37.2086 50.5958 31.8119 50.5958C30.3637 50.5958 28.9688 50.2864 27.6661 49.6763Z" fill="#222222"/>
<path d="M17.7179 27.9658V13.3903C18.8174 13.2682 19.6754 12.3337 19.6754 11.2021C19.6754 9.98781 18.6876 9 17.4732 9H7.6859C6.47159 9 5.48378 9.98781 5.48378 11.2021C5.48378 12.3336 6.34175 13.2682 7.44124 13.3903V25.153C7.44124 25.5584 7.76991 25.8871 8.17531 25.8871C8.58072 25.8871 8.90939 25.5584 8.90939 25.153V13.4043H13.069C13.4744 13.4043 13.8031 13.0756 13.8031 12.6702C13.8031 12.2648 13.4744 11.9361 13.069 11.9361H7.6859C7.28113 11.9361 6.95183 11.6069 6.95183 11.202C6.95183 10.7972 7.28104 10.468 7.6859 10.468H17.4731C17.8779 10.468 18.2072 10.7972 18.2072 11.202C18.2072 11.6069 17.878 11.9361 17.4731 11.9361H16.0051C15.5997 11.9361 15.271 12.2648 15.271 12.6702C15.271 13.0756 15.5997 13.4043 16.0051 13.4043H16.2498V28.0893C16.2498 28.1709 16.2633 28.252 16.2901 28.3292L23.4239 48.9563C23.8547 50.202 23.7575 51.3576 23.1503 52.2102C22.543 53.0627 21.4828 53.5322 20.1647 53.5322H4.99455C3.67654 53.5322 2.61613 53.0628 2.00884 52.2102C1.40164 51.3576 1.30442 50.202 1.73525 48.9563L8.86905 28.3294C9.00157 27.9462 8.79842 27.5282 8.4153 27.3957C8.03227 27.2632 7.61411 27.4663 7.48159 27.8494L0.347788 48.4763C-0.242615 50.1831 -0.0772914 51.8116 0.81303 53.0616C1.70335 54.3116 3.18839 55 4.99446 55H20.1647C21.9708 55 23.4558 54.3116 24.3461 53.0616C25.2364 51.8116 25.4018 50.1831 24.8114 48.4763L17.7179 27.9658Z" fill="#222222"/>
<path d="M6.32682 43.1356C6.13984 42.9907 5.89428 42.9445 5.66777 43.012C5.44099 43.0795 5.26048 43.2521 5.18321 43.4757L3.12179 49.4361C2.85044 50.2207 2.87956 50.9033 3.20373 51.3583C3.52791 51.8133 4.16351 52.064 4.99363 52.064H20.1639C20.9939 52.064 21.6296 51.8133 21.9537 51.3583C22.2779 50.9033 22.307 50.2206 22.0356 49.4361L19.9741 43.4755C19.8967 43.2519 19.7164 43.0794 19.4896 43.0119C19.2628 42.9443 19.0174 42.9904 18.8306 43.1356C18.4302 43.4461 18.0511 43.6837 17.1351 43.6837C16.268 43.6837 15.8766 43.3475 15.335 42.8823C14.7355 42.3672 13.9894 41.7263 12.5782 41.7263C11.1671 41.7263 10.4211 42.3672 9.82161 42.8824C9.28009 43.3476 8.88888 43.6837 8.02174 43.6837C7.106 43.6835 6.72701 43.4462 6.32682 43.1356ZM10.7783 43.9957C11.3199 43.5304 11.7111 43.1943 12.5781 43.1943C13.4453 43.1943 13.8366 43.5305 14.3783 43.9958C14.9777 44.5108 15.7238 45.1518 17.135 45.1518C17.9023 45.1518 18.4547 45.0144 18.8859 44.821L20.6481 49.916C20.7522 50.2171 20.7579 50.4144 20.7477 50.4994C20.6707 50.5368 20.4825 50.5959 20.1638 50.5959H4.99363C4.67493 50.5959 4.48679 50.5368 4.4097 50.4994C4.39945 50.4143 4.4052 50.2171 4.50934 49.916L6.27138 44.8212C6.70239 45.0145 7.2547 45.1519 8.02183 45.1519C9.43301 45.1517 10.179 44.5107 10.7783 43.9957Z" fill="#222222"/>
</svg>
